<svg width="839" height="412" viewBox="0 0 839 412" fill="none" xmlns="http://www.w3.org/2000/svg">
<path d="M824.799 0.5H838.5V14.2087" stroke="black" stroke-miterlimit="10"/>
<path d="M0.5 14.2087V0.5H14.2007" stroke="black" stroke-miterlimit="10"/>
<path d="M838.499 8.3704C834.168 8.3704 830.642 4.85452 830.642 0.5" stroke="black" stroke-miterlimit="10"/>
<path d="M8.35659 0.5C8.35659 4.83839 4.84688 8.3704 0.5 8.3704" stroke="black" stroke-miterlimit="10"/>
<path d="M31.957 4.37075V0.435547" stroke="black" stroke-miterlimit="10"/>
<path d="M807.205 4.37075V0.435547" stroke="black" stroke-miterlimit="10"/>
<path d="M14.2007 411.144H0.5V397.436" stroke="black" stroke-miterlimit="10"/>
<path d="M838.5 397.436V411.144H824.799" stroke="black" stroke-miterlimit="10"/>
<path d="M0.5 403.273C4.83078 403.273 8.35659 406.789 8.35659 411.144" stroke="black" stroke-miterlimit="10"/>
<path d="M830.643 411.144C830.643 406.805 834.152 403.273 838.499 403.273" stroke="black" stroke-miterlimit="10"/>
<path d="M807.045 407.275V411.211" stroke="black" stroke-miterlimit="10"/>
<path d="M31.7793 407.275V411.211" stroke="black" stroke-miterlimit="10"/>
</svg>
